<svg width="258" height="41" viewBox="0 0 258 41" fill="none" xmlns="http://www.w3.org/2000/svg">
<g clip-path="url(#clip0_107_7)">
<path d="M65.9351 15.4729C65.9351 13.1478 65.8605 8.08638 65.8605 7.48533C65.8605 5.57149 65.6011 5.04558 64.222 5.04558H62.4735C62.2849 5.04558 62.2496 4.97045 62.2496 4.74506V3.84745C62.2496 3.65765 62.3596 3.58252 62.5482 3.58252C63.2908 3.58252 64.4853 3.69719 67.7661 3.69719C70.6737 3.69719 72.0135 3.58252 72.7208 3.58252C72.984 3.58252 73.1137 3.62206 73.1137 3.77232V4.74506C73.1137 4.97045 73.039 5.04558 72.8151 5.04558H70.9173C69.6482 5.04558 69.4635 5.68221 69.4635 7.18481C69.4635 7.71072 69.3888 12.6614 69.3888 14.7611V15.3977C69.3888 15.5875 69.4989 15.6982 69.8368 15.6982H83.6281C84.186 15.6982 84.3707 15.6231 84.3707 15.1367V14.7413C84.3707 12.6021 84.2607 7.39043 84.2607 6.93965C84.2607 5.75339 84.1114 5.02581 83.0309 5.02581H81.0899C80.9052 5.02581 80.8305 4.95068 80.8305 4.76483V3.80791C80.8305 3.65765 80.8698 3.58252 81.0545 3.58252C81.8403 3.58252 83.4395 3.69719 85.9738 3.69719C88.5081 3.69719 90.0365 3.58252 90.7438 3.58252C91.007 3.58252 91.0424 3.65765 91.0424 3.88304V4.7846C91.0424 5.00999 90.9677 5.04558 90.7438 5.04558H89.07C87.9855 5.04558 87.8912 5.68221 87.8912 7.02269C87.8912 7.5486 87.8166 13.8872 87.8166 15.2751V16.5524C87.8166 17.7386 87.8912 24.8799 87.9266 27.0152C87.9266 28.3676 88.2999 28.8935 89.4197 28.8935H91.0581C91.3214 28.8935 91.396 28.9647 91.396 29.1545V30.0521C91.396 30.2775 91.3214 30.3486 91.0974 30.3486C90.3902 30.3486 89.1328 30.2379 86.4021 30.2379C83.1566 30.2379 81.9661 30.3486 80.8462 30.3486C80.6969 30.3486 80.6223 30.2379 80.6223 30.0877V29.1663C80.6223 28.9765 80.6969 28.9053 80.9209 28.9053H83.2784C84.1703 28.9053 84.2843 28.1896 84.2843 27.1773C84.3196 25.4138 84.3943 19.3757 84.3943 18.0233V17.5014C84.3943 17.1059 84.2096 17.0506 83.577 17.0506H69.8839C69.491 17.0506 69.3653 17.1613 69.3653 17.446V18.2369C69.3653 19.2491 69.4006 25.0263 69.4399 27.6519C69.4753 28.5534 69.8328 28.9291 70.6187 28.9291H72.4457C72.6697 28.9291 72.7443 29.0002 72.7443 29.19V30.1272C72.7443 30.317 72.6697 30.3882 72.4457 30.3882C71.7385 30.3882 70.434 30.2775 67.7504 30.2775C64.5442 30.2775 63.4283 30.3882 62.5678 30.3882C62.3832 30.3882 62.3085 30.317 62.3085 30.1272V29.1268C62.3085 28.9765 62.4185 28.9053 62.5678 28.9053H64.7682C65.6994 28.9053 65.8133 28.0038 65.8133 27.1022C65.8487 25.3386 65.9233 18.0629 65.9233 17.0862L65.9351 15.4729Z" fill="#FDF6E4"/>
<path d="M97.0226 20.2772C96.9302 20.8722 96.8933 21.4746 96.9126 22.0764C96.9126 25.7538 99.2229 28.5297 102.205 28.5297C103.115 28.5533 104.014 28.3287 104.808 27.8797C105.601 27.4306 106.259 26.774 106.712 25.9792C106.738 25.9133 106.786 25.8584 106.847 25.8239C106.909 25.7893 106.98 25.7771 107.05 25.7894L107.533 26.0544C107.647 26.09 107.722 26.2046 107.533 26.6159C106.873 28.1145 104.908 30.7045 101.608 30.7045C99.4822 30.7045 97.1326 30.0679 95.7574 28.0394C94.449 26.1295 94.115 24.7416 94.115 22.1081C94.0907 19.8857 94.9377 17.7432 96.4725 16.1451C98.0756 14.4962 99.938 14.168 101.8 14.168C106.087 14.1601 107.266 18.2131 107.266 19.6762C107.266 20.2021 106.818 20.2772 106.221 20.2772H97.0226ZM102.944 19.1503C103.655 19.1503 103.954 18.9644 103.954 18.6244C103.954 17.7624 103.506 15.287 101.081 15.287C99.4429 15.287 97.8752 16.3744 97.1522 19.1503H102.944Z" fill="#FDF6E4"/>
<path d="M122.554 20.6529C122.554 17.885 122.036 17.1613 121.438 16.5998C120.951 16.1491 119.867 15.9237 119.053 15.9237C118.323 15.9518 117.611 16.1661 116.985 16.5465C116.359 16.9268 115.839 17.4608 115.474 18.0985C115.026 18.8498 114.951 19.5616 114.951 20.6134V28.0394C114.951 28.6404 115.175 29.0161 115.698 29.0161H117.038C117.376 29.0161 117.411 29.0912 117.411 29.3522V29.9532C117.411 30.2182 117.376 30.3487 117.112 30.3487C116.778 30.3487 115.772 30.2379 113.721 30.2379C111.757 30.2379 110.555 30.3487 110.256 30.3487C110.032 30.3487 109.957 30.2775 109.957 30.0126V29.3522C109.957 29.0556 110.032 29.0161 110.405 29.0161H111.67C112.008 29.0161 112.193 28.7907 112.232 28.0789C112.268 27.4423 112.268 26.7661 112.268 26.1295V19.4508C112.268 18.6995 112.118 18.0234 111.226 17.537L110.441 17.1416C110.256 17.0269 110.181 16.9518 110.181 16.841V16.5405C110.181 16.4298 110.331 16.2795 110.405 16.24L113.686 14.5516C113.904 14.4288 114.145 14.3522 114.393 14.3262C114.617 14.3262 114.727 14.5911 114.727 14.8521L114.877 17.0269H114.991C115.639 16.1751 116.466 15.4778 117.412 14.985C118.359 14.4921 119.403 14.2159 120.468 14.1759C122.405 14.1759 123.898 15.3029 124.68 17.0664H124.868C125.984 15.6034 128.11 14.1759 130.346 14.1759C131.65 14.1759 132.805 14.4013 133.701 15.3029C134.597 16.2044 135.489 17.0269 135.489 19.9174V28.2648C135.489 28.8302 135.827 29.0161 136.275 29.0161H137.281C137.619 29.0161 137.693 29.0912 137.693 29.3522V29.9928C137.693 30.2538 137.619 30.3645 137.43 30.3645C137.171 30.3645 136.126 30.2538 134.338 30.2538C132.475 30.2538 131.132 30.3645 130.872 30.3645C130.613 30.3645 130.574 30.2538 130.574 29.9928V29.3522C130.574 29.0912 130.648 29.0161 131.057 29.0161H131.988C132.085 29.0272 132.184 29.0168 132.277 28.9855C132.37 28.9543 132.455 28.9029 132.526 28.8351C132.597 28.7673 132.653 28.6846 132.689 28.593C132.725 28.5013 132.74 28.4028 132.735 28.3043C132.809 27.4423 132.809 26.09 132.809 25.2635V19.7276C132.809 18.49 132.585 17.4025 131.729 16.7264C130.922 16.1689 129.956 15.8913 128.978 15.9355C128.324 15.9812 127.69 16.1806 127.126 16.5178C126.563 16.855 126.085 17.3205 125.733 17.8771C125.171 18.9645 125.21 19.9767 125.21 21.6652V28.1541C125.21 28.6404 125.395 29.0161 125.957 29.0161H127.222C127.56 29.0161 127.635 29.0912 127.635 29.3522V29.9532C127.635 30.2538 127.56 30.3487 127.371 30.3487C127.112 30.3487 126.142 30.2379 124.055 30.2379C122.043 30.2379 120.774 30.3487 120.55 30.3487C120.326 30.3487 120.291 30.2379 120.291 29.977V29.3917C120.291 29.0912 120.326 28.9963 120.664 28.9963H121.745C122.338 28.9963 122.562 28.8461 122.562 28.3597L122.554 20.6529Z" fill="#FDF6E4"/>
<path d="M141.343 10.0358C141.343 7.5209 140.951 6.99894 139.591 6.54816L139.218 6.43349C138.825 6.32277 138.734 6.24764 138.734 6.13297V5.83245C138.734 5.72173 138.809 5.6466 139.033 5.53193C140.381 4.921 141.693 4.23316 142.962 3.47178C143.188 3.28748 143.46 3.16977 143.748 3.13171C144.007 3.13171 144.082 3.32152 144.043 3.7723C144.007 4.07282 144.007 8.34733 144.007 11.6807V16.0304C145.186 14.8678 147.324 14.1521 149.151 14.1521C152.432 14.1521 155.972 16.8173 155.972 22.1792C155.972 26.5684 152.467 30.6966 148.219 30.6966C146.133 30.6966 144.683 30.2458 143.823 29.7199L142.33 30.5463C142.264 30.6027 142.186 30.6422 142.102 30.6615C142.017 30.6808 141.93 30.6792 141.846 30.657L141.398 30.5463C141.249 30.5068 141.21 30.4356 141.249 30.2458C141.324 29.7199 141.324 26.6079 141.324 23.8676L141.343 10.0358ZM144.027 22.1871C144.027 25.303 144.137 26.426 144.585 27.6281C144.958 28.5297 146.526 29.5024 148.121 29.5024C150.361 29.5024 153.119 27.9642 153.119 23.0531C153.119 19.4112 151.217 15.9632 147.563 15.9632C146.254 15.9253 144.983 16.41 144.027 17.3115V22.1871Z" fill="#FDF6E4"/>
<path d="M171.087 28.6049C171.332 28.6105 171.576 28.5629 171.801 28.4653C172.026 28.3678 172.227 28.2225 172.392 28.0394C172.541 27.8536 172.616 27.7785 172.765 27.8892L173.138 28.1897C173.252 28.3044 173.327 28.4902 173.103 28.8659C172.854 29.4279 172.444 29.9027 171.927 30.2301C171.409 30.5575 170.806 30.7226 170.195 30.7046C168.851 30.7046 167.885 29.7279 167.547 28.1897H167.472C166.686 29.1268 165.461 29.9177 163.783 30.4792C163.066 30.6713 162.323 30.7474 161.583 30.7046C160.691 30.7046 159.347 29.9533 159.347 27.5926C159.347 25.8646 160.133 24.366 163.076 23.0532C164.753 22.3019 166.69 21.4003 167.288 20.8744V18.4742C167.213 17.8376 167.174 16.8609 166.765 16.3745C166.356 15.8881 165.61 15.5481 164.529 15.5481C163.783 15.5481 162.628 15.8486 162.105 16.3389C161.583 16.8292 161.92 17.3868 161.92 18.0629C161.92 19.3757 161.472 20.2022 159.956 20.2022C159.359 20.2022 159.06 19.8621 159.06 19.0159C159.06 17.8296 160.105 16.3903 161.634 15.4887C162.988 14.6122 164.569 14.1557 166.18 14.1759C167.932 14.1759 168.639 14.7019 169.162 15.1882C169.948 15.9791 169.983 16.8411 169.983 17.8534V25.7895C169.971 27.9287 170.419 28.6049 171.087 28.6049ZM167.248 22.0013C165.909 23.0136 162.274 23.7649 162.274 26.8888C162.274 28.2767 163.095 28.9529 164.211 28.9529C165.327 28.9529 167.268 27.6401 167.268 26.6278L167.248 22.0013Z" fill="#FDF6E4"/>
<path d="M175.786 39.2575C174.443 38.4311 173.885 37.4544 173.885 36.2167C173.885 34.1171 176.01 32.5037 177.814 31.7168V31.5666C176.242 31.2305 175.315 30.0679 175.315 28.941C175.315 27.1418 177.366 25.8646 178.67 25.3822V25.3071C177.217 24.6704 175.205 22.9345 175.205 19.6051C175.205 17.1653 177.366 14.1641 181.578 14.1641C182.476 14.1467 183.367 14.3336 184.183 14.7109C184.999 15.0881 185.721 15.646 186.293 16.3428C187.303 15.6271 188.568 14.8798 189.798 14.8798C191.028 14.8798 191.625 15.7023 191.55 16.4615C191.54 16.8394 191.381 17.1978 191.108 17.458C190.836 17.7182 190.472 17.859 190.096 17.8494C189.605 17.8428 189.136 17.6409 188.792 17.2879C188.569 17.0992 188.296 16.981 188.006 16.9478C187.601 16.9336 187.199 17.0106 186.827 17.1732C187.207 18.0746 187.397 19.0453 187.385 20.0242C187.42 21.4975 186.931 22.935 186.006 24.0773C185.04 25.1647 182.914 25.9516 181.684 25.9516C181.045 25.9777 180.405 25.9152 179.782 25.7658C179.04 26.0663 177.818 26.8136 177.818 27.8654C177.818 29.4036 179.684 29.289 182.179 29.1387C185.236 28.9884 187.102 29.3285 188.592 30.491C189.159 30.9014 189.621 31.4425 189.939 32.0691C190.257 32.6958 190.421 33.3898 190.419 34.0933C190.419 35.8569 189.786 37.316 187.92 38.7079C186.953 39.4197 184.713 40.4675 181.547 40.4675C179.7 40.4557 177.574 40.2698 175.786 39.2575ZM188.085 35.3943C188.085 33.1799 186.407 31.4915 182.682 31.7564L179.103 32.0174C177.947 32.3179 176.12 33.5991 176.12 35.6197C176.166 36.13 176.319 36.6248 176.57 37.0708C176.82 37.5167 177.163 37.9037 177.574 38.2057C178.804 39.0677 180.148 39.2575 182.792 39.2575C184.171 39.2575 188.273 38.2809 188.085 35.3943ZM184.619 19.4113C184.619 17.7624 184.285 16.7857 183.613 16.0384C183.136 15.5547 182.501 15.2612 181.826 15.2119C181.334 15.1843 180.842 15.264 180.383 15.4455C179.925 15.627 179.511 15.9062 179.169 16.2638C177.991 17.537 177.826 19.265 177.826 20.6885C177.787 21.8881 178.209 23.0566 179.004 23.9508C179.294 24.2602 179.644 24.5055 180.033 24.6709C180.422 24.8364 180.841 24.9184 181.264 24.9116C183.798 24.9116 184.619 21.7759 184.619 19.4113Z" fill="#FDF6E4"/>
<path d="M195.542 20.2772C195.448 20.872 195.41 21.4744 195.428 22.0764C195.428 25.7538 197.739 28.5297 200.721 28.5297C201.631 28.5536 202.531 28.3291 203.325 27.8801C204.12 27.4311 204.778 26.7743 205.231 25.9792C205.258 25.9133 205.305 25.8584 205.367 25.8239C205.428 25.7893 205.5 25.7771 205.569 25.7894L206.053 26.0544C206.163 26.0899 206.237 26.2046 206.053 26.6159C205.381 28.1145 203.444 30.7045 200.128 30.7045C198.002 30.7045 195.652 30.0679 194.273 28.0394C192.969 26.1295 192.635 24.7416 192.635 22.108C192.612 19.8859 193.458 17.7439 194.992 16.1451C196.595 14.4962 198.462 14.168 200.324 14.168C204.611 14.168 205.805 18.221 205.805 19.6841C205.805 20.21 205.357 20.2851 204.76 20.2851L195.542 20.2772ZM201.467 19.1503C202.175 19.1503 202.473 18.9644 202.473 18.6244C202.473 17.7624 202.025 15.287 199.605 15.287C197.963 15.287 196.399 16.3744 195.676 19.1503H201.467Z" fill="#FDF6E4"/>
<path d="M210.748 20.2772C210.748 18.3634 210.449 17.9877 209.408 17.4262L208.701 17.0308C208.477 16.9557 208.402 16.9161 208.402 16.7659V16.5444C208.402 16.3942 208.477 16.319 208.701 16.2044L212.39 14.2905C212.55 14.199 212.729 14.1475 212.913 14.1402C213.133 14.1402 213.172 14.3656 213.172 14.591L213.357 17.2562H213.506C214.626 15.5282 216.378 13.99 217.982 13.99C219.247 13.99 219.879 14.7808 219.879 15.6429C219.879 16.7303 218.987 17.4816 218.308 17.4816C217.929 17.4669 217.559 17.364 217.227 17.181C216.852 16.9711 216.427 16.8672 215.997 16.8805C215.4 16.8805 214.426 17.2562 213.797 18.4622C213.613 18.8359 213.487 19.2361 213.424 19.6485V27.4778C213.424 28.6404 213.687 29.016 214.469 29.016H216.221C216.445 29.016 216.481 29.1267 216.481 29.3521V30.0283C216.481 30.2537 216.445 30.3644 216.296 30.3644C216.072 30.3644 214.359 30.2537 212.343 30.2537C210.033 30.2537 208.469 30.3644 208.245 30.3644C208.096 30.3644 208.021 30.2932 208.021 29.9927V29.3521C208.021 29.0912 208.096 29.016 208.414 29.016H209.868C210.426 29.016 210.689 28.7906 210.689 28.3043C210.724 27.0666 210.724 25.7538 210.724 23.8004L210.748 20.2772Z" fill="#FDF6E4"/>
<path d="M224.021 19.3401C224.021 18.0629 223.797 17.3867 221.93 17.0862C221.671 17.0506 221.596 16.9754 221.596 16.8252V16.4891C221.596 16.3744 221.671 16.2993 221.856 16.2241C223.24 15.7093 224.586 15.0948 225.883 14.3854C226.097 14.2531 226.34 14.1757 226.59 14.16C226.775 14.16 226.814 14.3498 226.775 14.6108C226.704 15.2514 226.704 17.6121 226.704 20.724V24.8167C226.704 26.2758 226.704 27.6281 226.74 28.0394C226.814 28.7551 226.924 29.016 227.337 29.016H229.07C229.368 29.016 229.443 29.1268 229.443 29.3522V29.9927C229.443 30.2537 229.368 30.3644 229.109 30.3644C228.85 30.3644 227.093 30.2537 225.529 30.2537C223.368 30.2537 221.915 30.3644 221.502 30.3644C221.317 30.3644 221.207 30.2933 221.207 30.0679V29.3166C221.207 29.0912 221.317 29.016 221.577 29.016H223.404C223.816 29.016 223.966 28.8658 224.001 28.2647C224.04 27.1417 224.04 25.9792 224.04 24.8523L224.021 19.3401ZM222.268 7.82143C222.268 6.84869 223.086 5.72174 224.626 5.72174C224.888 5.71487 225.149 5.76094 225.393 5.85722C225.638 5.9535 225.86 6.09805 226.048 6.28233C226.236 6.46661 226.385 6.68689 226.487 6.93018C226.589 7.17346 226.642 7.43483 226.641 7.69885C226.651 7.99531 226.598 8.29044 226.489 8.56563C226.379 8.84083 226.213 9.09013 226.003 9.2978C225.792 9.50547 225.541 9.66702 225.266 9.77226C224.99 9.8775 224.696 9.92414 224.402 9.90926C223.533 9.92112 222.268 9.0591 222.268 7.82143V7.82143Z" fill="#FDF6E4"/>
<path d="M234.457 20.2772C234.362 20.872 234.324 21.4744 234.343 22.0764C234.343 25.7538 236.657 28.5297 239.635 28.5297C240.546 28.5536 241.446 28.3291 242.24 27.8801C243.034 27.4311 243.692 26.7743 244.146 25.9792C244.172 25.9133 244.22 25.8584 244.281 25.8239C244.343 25.7893 244.414 25.7771 244.484 25.7894L244.967 26.0544C245.077 26.0899 245.152 26.2046 244.967 26.6159C244.295 28.1145 242.358 30.7045 239.042 30.7045C236.916 30.7045 234.567 30.0679 233.187 28.0394C231.883 26.1295 231.549 24.7416 231.549 22.108C231.525 19.8857 232.372 17.7432 233.906 16.1451C235.506 14.4962 237.372 14.168 239.234 14.168C243.521 14.168 244.716 18.221 244.716 19.6841C244.716 20.21 244.268 20.2851 243.67 20.2851L234.457 20.2772ZM240.382 19.1503C241.089 19.1503 241.388 18.9644 241.388 18.6244C241.388 17.7624 240.94 15.287 238.519 15.287C236.877 15.287 235.313 16.3744 234.59 19.1503H240.382Z" fill="#FDF6E4"/>
<path d="M252.346 25.5641C252.346 28.3795 253.615 28.8658 254.287 28.8658C255.144 28.8658 256.224 28.7156 256.747 28.3795C256.78 28.3521 256.819 28.3323 256.86 28.3212C256.902 28.3101 256.945 28.3081 256.987 28.3152C257.03 28.3223 257.07 28.3384 257.106 28.3624C257.142 28.3865 257.172 28.4179 257.195 28.4546L257.379 28.7907C257.419 28.8537 257.434 28.9298 257.42 29.0034C257.406 29.0769 257.365 29.1423 257.305 29.1861C256.15 30.172 254.681 30.7056 253.167 30.6887C251.34 30.6887 249.552 28.9251 249.552 27.5016C249.552 25.9634 249.662 22.6617 249.662 22.1357V21.3251C249.662 20.6529 249.702 18.0985 249.737 16.5247H247.466C247.128 16.5247 246.904 16.3744 246.904 16.0739C246.904 15.7734 247.128 15.6785 247.576 15.3978C248.472 14.8758 251.34 11.9853 251.827 10.712C251.856 10.5982 251.924 10.4983 252.019 10.4297C252.114 10.361 252.229 10.328 252.346 10.3364C252.645 10.3364 252.739 10.5973 252.739 10.8978L252.554 14.5753H257.713C257.937 14.5753 258.051 14.7611 257.976 14.9114L257.584 16.2242C257.548 16.414 257.473 16.5247 257.25 16.5247H252.46C252.385 18.2487 252.346 20.0835 252.346 21.8155V25.5641Z" fill="#FDF6E4"/>
<path d="M13.7913 27.6004C13.6002 27.6329 13.404 27.6152 13.2216 27.549C9.52035 26.1809 6.87603 23.8439 5.78372 20.9771C4.93503 18.7588 4.38887 14.1047 7.72473 10.7238C8.90612 9.55527 10.3334 8.66889 11.901 8.13023C13.4687 7.59157 15.1366 7.41442 16.7814 7.61186C16.9467 7.63123 17.1054 7.68819 17.2455 7.77843C17.3856 7.86867 17.5035 7.98982 17.5902 8.13271C17.6769 8.2756 17.7302 8.43647 17.7459 8.60314C17.7617 8.76981 17.7396 8.93791 17.6812 9.09469C16.3649 12.6535 17.4219 16.2123 17.5476 16.6077V16.6354V16.6631C18.1004 18.3069 19.012 19.8054 20.2155 21.0483C20.4046 21.2483 20.5123 21.5123 20.5174 21.7883C20.5225 22.0643 20.4246 22.3321 20.243 22.539C18.4943 24.5087 16.4338 26.1735 14.145 27.466C14.0353 27.5303 13.9158 27.5758 13.7913 27.6004V27.6004ZM14.0153 9.88554C12.2373 10.1934 10.5936 11.0356 9.30032 12.3016C6.75815 14.8797 7.19429 18.482 7.85046 20.21C8.66772 22.3571 10.6716 24.1642 13.5163 25.3109C15.1313 24.3435 16.6201 23.1773 17.9484 21.8391C16.8324 20.5143 15.9812 18.985 15.4416 17.3353C15.4433 17.3248 15.4433 17.3141 15.4416 17.3037V17.2681C14.7266 14.8256 14.6401 12.2404 15.1901 9.75505C14.7961 9.77244 14.4036 9.81603 14.0153 9.88554Z" fill="#FDF6E4"/>
<path d="M22.2272 17.9206C22.0083 17.9587 21.783 17.9293 21.581 17.8361C21.379 17.743 21.2098 17.5904 21.0956 17.3986C20.7819 16.8753 20.5276 16.3182 20.3373 15.7378V15.7378V15.6904C20.2414 15.3629 20.164 15.0302 20.1055 14.6939C19.9205 13.6486 19.9086 12.5798 20.0701 11.5305C20.1076 11.3047 20.214 11.0962 20.3745 10.934C20.535 10.7717 20.7417 10.6638 20.966 10.625V10.625C21.1898 10.585 21.4205 10.616 21.6261 10.7138C21.8316 10.8116 22.0019 10.9713 22.1133 11.1707C22.7933 12.4099 23.1956 13.7838 23.292 15.1961V15.1961C23.2898 15.2065 23.2898 15.2173 23.292 15.2277V15.2277C23.3082 15.8351 23.2582 16.4424 23.1427 17.0388C23.1016 17.2586 22.995 17.4607 22.8371 17.6182C22.6792 17.7757 22.4775 17.8811 22.2587 17.9206H22.2272Z" fill="#FDF6E4"/>
<path d="M33.4292 24.1208C33.2992 24.1435 33.1663 24.1435 33.0363 24.1208C30.4512 23.6897 27.9543 22.8334 25.6456 21.5862C25.4074 21.4493 25.2285 21.2281 25.1435 20.9657C25.0585 20.7033 25.0736 20.4184 25.1859 20.1666C25.8974 18.5842 26.2478 16.8615 26.2114 15.125V15.125C26.2135 15.1119 26.2135 15.0985 26.2114 15.0854C26.2114 15.0577 26.2114 15.0261 26.2114 14.9984C26.2114 14.9708 26.2114 14.9589 26.2114 14.9431C26.1485 13.9901 25.7752 10.6883 23.5395 8.04691C23.431 7.92093 23.3521 7.77199 23.3086 7.61114C23.265 7.45028 23.258 7.28162 23.2881 7.11767C23.319 6.9552 23.3859 6.80184 23.4838 6.66902C23.5818 6.5362 23.7083 6.42734 23.8539 6.35055C25.3344 5.6019 26.9632 5.19758 28.6199 5.16746C30.2766 5.13735 31.9188 5.48221 33.4253 6.17657C37.7199 8.2209 38.765 12.7841 38.7218 15.1606C38.6668 18.229 36.9694 21.3291 33.9479 23.8875C33.7972 24.0078 33.6188 24.088 33.4292 24.1208ZM27.5787 20.1073C29.2806 20.9116 31.0758 21.4988 32.9224 21.8551C35.2052 19.7712 36.4822 17.3986 36.5411 15.121C36.5765 13.2783 35.7553 9.74327 32.5059 8.18927C30.4903 7.28329 28.215 7.15108 26.1092 7.81757C27.4339 9.9158 28.2247 12.3101 28.4117 14.7889V14.8126C28.4117 14.8561 28.4117 14.9035 28.4117 14.951C28.4117 14.9984 28.4117 14.9866 28.4117 15.0063V15.0538C28.4578 16.7764 28.1751 18.4919 27.5787 20.1073ZM26.2192 15.121C26.217 15.1026 26.217 15.084 26.2192 15.0657C26.2176 15.0841 26.2176 15.1026 26.2192 15.121Z" fill="#FDF6E4"/>
<path d="M26.9147 26.6237C25.9288 26.9828 24.9192 27.2722 23.8932 27.4897C22.8517 27.6357 21.8014 27.7096 20.7499 27.7111C21.719 26.8738 22.6204 25.9602 23.4453 24.9788C24.5554 25.621 25.7158 26.1711 26.9147 26.6237V26.6237Z" fill="#FDF6E4"/>
<path d="M24.0818 28.5811H24.0425C22.9554 28.734 21.8593 28.8119 20.7616 28.8144C20.5412 28.8108 20.3269 28.7407 20.1466 28.6131C19.9662 28.4855 19.8281 28.3063 19.7502 28.0987C19.6723 27.8911 19.6581 27.6648 19.7096 27.4491C19.761 27.2333 19.8757 27.0381 20.0387 26.8887C20.9625 26.0873 21.823 25.2147 22.6123 24.2789C22.7782 24.0797 23.0088 23.9458 23.2633 23.9009C23.5178 23.8561 23.7798 23.9031 24.0032 24.0338C25.0606 24.647 26.1641 25.1759 27.3037 25.6155C27.5142 25.6941 27.6958 25.8357 27.824 26.0213C27.9523 26.2068 28.021 26.4274 28.021 26.6534C28.021 26.8795 27.9523 27.1001 27.824 27.2856C27.6958 27.4712 27.5142 27.6128 27.3037 27.6914C26.2695 28.0645 25.2114 28.367 24.1368 28.5969L24.0818 28.5811ZM23.6889 26.4023H23.7439H23.7124H23.6889Z" fill="#FDF6E4"/>
<path d="M40.6511 29.7911C40.4566 29.8263 40.2593 29.8435 40.0617 29.8425C38.1981 29.8809 36.334 29.7924 34.4823 29.5775C31.7616 29.2755 29.088 28.6381 26.5218 27.6795C25.2738 27.2012 24.0651 26.6248 22.907 25.9555C22.7695 25.8713 22.6523 25.7574 22.5639 25.6219C22.4756 25.4865 22.4183 25.333 22.3962 25.1725C22.3677 25.0131 22.3744 24.8494 22.4158 24.6929C22.4572 24.5364 22.5324 24.391 22.6359 24.267C23.6821 23.0383 24.5463 21.6638 25.2016 20.1863C25.264 20.0449 25.3548 19.918 25.4685 19.8139C25.5821 19.7097 25.716 19.6305 25.8617 19.5813C26.0066 19.5318 26.1602 19.5136 26.3126 19.5279C26.4649 19.5422 26.6125 19.5887 26.7458 19.6643C28.8397 20.7839 31.0991 21.557 33.4371 21.9538C35.5234 22.3265 37.6406 22.4947 39.7592 22.456H39.9674C40.9394 22.4454 41.8761 22.8226 42.5726 23.505C43.2691 24.1874 43.6689 25.1196 43.6844 26.0978C43.6921 26.9744 43.392 27.8255 42.837 28.5012C42.2821 29.1769 41.508 29.6337 40.6511 29.7911V29.7911ZM25.1466 24.6308C25.8342 24.9748 26.5611 25.2991 27.3234 25.5917C29.7172 26.4941 32.2129 27.0945 34.7534 27.379C36.5124 27.5847 38.2834 27.6692 40.0538 27.6321C40.131 27.6391 40.2085 27.6391 40.2857 27.6321C40.6303 27.5693 40.9416 27.3853 41.164 27.113C41.3864 26.8407 41.5054 26.4977 41.4998 26.1453V26.1453C41.4962 25.9507 41.4545 25.7588 41.3771 25.5805C41.2997 25.4022 41.188 25.241 41.0486 25.1062C40.9092 24.9713 40.7447 24.8655 40.5645 24.7948C40.3844 24.7241 40.1921 24.6899 39.9988 24.6941H39.7867C37.5247 24.7241 35.2652 24.5321 33.0403 24.1207C30.8462 23.7473 28.711 23.0825 26.6908 22.1436C26.2408 23.0116 25.7245 23.8432 25.1466 24.6308V24.6308Z" fill="#FDF6E4"/>
<path d="M39.9634 24.6505C39.9059 24.6564 39.848 24.6564 39.7905 24.6505C37.5286 24.6973 35.2676 24.5198 33.0402 24.1207C32.8355 24.0825 32.6457 23.9867 32.493 23.8444C32.3402 23.702 32.2307 23.5189 32.1772 23.3164C32.1237 23.1139 32.1284 22.9003 32.1908 22.7004C32.2531 22.5005 32.3706 22.3225 32.5294 22.1871C35.0598 20.0439 36.4586 17.5329 36.5215 15.113C36.5411 13.2743 35.7553 9.73918 32.4862 8.18517C31.2874 7.63921 29.9834 7.36673 28.6677 7.38723C27.3519 7.40774 26.0569 7.72073 24.8755 8.3038C24.2365 8.62868 23.6676 9.07753 23.2016 9.62451C22.6814 10.2714 22.3435 11.0471 22.2233 11.8705C22.1021 12.6735 22.1127 13.491 22.2547 14.2905C22.298 14.5385 22.3544 14.784 22.4237 15.026V15.026C22.5625 15.4408 22.747 15.8387 22.9737 16.2122C23.1182 16.4485 23.1673 16.7315 23.1113 17.0031C22.7537 18.8576 21.7871 20.7082 20.2391 22.5074C20.1391 22.6244 20.0158 22.7189 19.8772 22.785C19.7386 22.851 19.5878 22.8871 19.4345 22.8908C19.2811 22.8946 19.1288 22.8659 18.9872 22.8066C18.8456 22.7474 18.7179 22.6589 18.6124 22.5469C17.1828 21.0691 16.0994 19.2885 15.4416 17.3352C15.4433 17.3248 15.4433 17.3141 15.4416 17.3036V17.268C15.1862 16.4376 14.0939 12.432 15.6223 8.31961C16.0722 7.08756 16.7272 5.94159 17.5594 4.93085C18.0337 4.35599 18.5598 3.8265 19.131 3.34916C23.4767 -0.296632 30.2545 -1.05189 35.6335 1.50649C41.4447 4.27445 43.9554 10.4074 43.8847 15.2593C43.7673 18.5088 42.6466 21.6407 40.6785 24.2195C40.5055 24.452 40.2487 24.6068 39.9634 24.6505V24.6505ZM35.6178 22.278C36.8093 22.406 38.0068 22.4694 39.2051 22.4678C40.715 20.3488 41.5718 17.8294 41.6687 15.2237V15.2237C41.7433 11.0717 39.6176 5.85218 34.6905 3.50733C30.0698 1.30483 24.2468 1.92564 20.5455 5.04552C20.0773 5.43266 19.6447 5.86145 19.2528 6.32669C18.5763 7.15263 18.0448 8.08872 17.6812 9.09464C16.3453 12.6534 17.4022 16.2122 17.5279 16.6077V16.6353V16.663C17.9369 17.8988 18.5565 19.0535 19.3589 20.0755C20.0483 19.1548 20.5613 18.1129 20.8717 17.0031C20.658 16.5988 20.4792 16.1768 20.3373 15.7417V15.7417V15.6942C20.2414 15.3667 20.164 15.0341 20.1055 14.6978C19.9205 13.6525 19.9086 12.5836 20.0701 11.5344C20.2566 10.3287 20.7583 9.19465 21.5239 8.24844C22.178 7.47208 22.9795 6.83487 23.8814 6.37414C25.3618 5.627 26.99 5.22384 28.6459 5.19441C30.3018 5.16499 31.9431 5.51003 33.4489 6.20411C37.7199 8.22076 38.765 12.7839 38.7179 15.1604C38.6746 17.6081 37.5902 20.0716 35.6178 22.2701V22.278Z" fill="#FDF6E4"/>
<path d="M7.82293 30.3249C7.54952 30.3728 7.26828 30.3134 7.0371 30.1589C4.30837 28.4113 2.19016 25.8496 0.978348 22.8317C-0.74655 18.3041 -0.463651 11.6768 4.06666 7.08202C8.25121 2.83519 14.8876 1.22187 20.2037 3.16339C20.3854 3.22982 20.5466 3.34328 20.6709 3.49233C20.7951 3.64139 20.8782 3.82078 20.9117 4.01243C20.9451 4.20408 20.9278 4.40122 20.8615 4.58399C20.7951 4.76676 20.6821 4.9287 20.5337 5.05351C20.0699 5.43868 19.6413 5.8648 19.2528 6.32677C18.5763 7.15271 18.0448 8.0888 17.6812 9.09472C17.5949 9.33116 17.4311 9.53093 17.2168 9.66105C17.0025 9.79117 16.7505 9.84387 16.5024 9.81044C15.1952 9.66481 13.8722 9.81153 12.6279 10.2401C11.3835 10.6687 10.2486 11.3686 9.30422 12.2897C6.76206 14.8679 7.1982 18.4702 7.85437 20.1982C8.71878 22.4639 10.9034 24.3422 13.9996 25.485C14.1909 25.5595 14.3577 25.6864 14.4812 25.8513C14.6046 26.0162 14.6798 26.2126 14.6982 26.4182C14.7166 26.6239 14.6774 26.8306 14.5852 27.0151C14.493 27.1995 14.3514 27.3544 14.1764 27.4621C12.2176 28.6007 10.1528 29.5436 8.01153 30.2775C7.95075 30.3008 7.88744 30.3167 7.82293 30.3249V30.3249ZM13.1037 4.74508C10.2789 5.23975 7.6731 6.59515 5.63832 8.62812C1.79168 12.5309 1.57165 18.1894 3.02937 22.0408C3.99992 24.4575 5.65793 26.5318 7.79543 28.0038C8.92203 27.5949 10.0264 27.1263 11.1038 26.6001C8.51054 25.2082 6.65598 23.2627 5.7837 20.9772C4.93501 18.7588 4.38885 14.1047 7.7247 10.7239C8.80437 9.65914 10.0883 8.82706 11.4982 8.27841C12.9081 7.72976 14.4143 7.47606 15.9248 7.5328C16.3465 6.59749 16.8895 5.72257 17.5397 4.93093L17.6812 4.74508C16.1675 4.47121 14.6174 4.47121 13.1037 4.74508Z" fill="#FDF6E4"/>
<path d="M8.91521 35.3942C8.01302 35.5416 7.08865 35.3448 6.32301 34.8425C5.55737 34.3401 5.00556 33.5683 4.77556 32.678C4.54557 31.7878 4.65395 30.8432 5.07949 30.0292C5.50503 29.2151 6.21711 28.5902 7.07637 28.2766L7.19032 28.2371H7.23747H7.27676C9.28166 27.548 11.2148 26.6633 13.0487 25.5957C15.1238 24.4119 16.9925 22.8945 18.5809 21.1037C19.8736 19.5932 20.6752 18.0866 20.9581 16.6196C21.0395 16.1936 21.0764 15.7603 21.0681 15.3266C21.0661 15.3095 21.0661 15.2922 21.0681 15.2752C20.9853 14.218 20.6827 13.1901 20.1801 12.2581C20.0498 12.0339 19.9999 11.7715 20.0386 11.5147C20.2267 10.3107 20.7283 9.17828 21.4924 8.23269C22.1463 7.4561 22.9479 6.81886 23.8499 6.35839C24.0715 6.24363 24.3249 6.20736 24.5695 6.25543C24.814 6.3035 25.0353 6.4331 25.1976 6.62332C27.8655 9.7867 28.3134 13.6856 28.3842 14.8086C28.3842 14.8402 28.3842 14.8797 28.3842 14.9193C28.3822 14.9364 28.3822 14.9536 28.3842 14.9707C28.3821 14.9917 28.3821 15.0129 28.3842 15.0339C28.4336 17.1089 28.0187 19.1685 27.1701 21.0602C26.4389 22.7383 25.4716 24.3017 24.2978 25.7024C23.4334 26.7271 22.4915 27.6829 21.4806 28.5613C19.3965 30.3492 17.1 31.87 14.6439 33.0889C12.9695 33.9318 11.2392 34.6572 9.4653 35.2598C9.28661 35.3221 9.10241 35.3671 8.91521 35.3942V35.3942ZM8.00758 30.2775L7.91328 30.3131H7.86613H7.81112C7.42868 30.4101 7.10019 30.656 6.89793 30.9967C6.69566 31.3375 6.63618 31.7451 6.73257 32.13C6.82896 32.5149 7.07333 32.8455 7.41192 33.049C7.7505 33.2526 8.15557 33.3125 8.53801 33.2155C8.60768 33.2034 8.67609 33.1849 8.74233 33.1601C10.4272 32.5881 12.0709 31.8997 13.6616 31.0999C15.952 29.9666 18.094 28.5521 20.0386 26.8887C20.9633 26.0896 21.8239 25.2183 22.6122 24.2829C23.6584 23.0541 24.5226 21.6797 25.178 20.2021C25.888 18.6245 26.241 16.9079 26.2113 15.1763C26.2094 15.1487 26.2094 15.1209 26.2113 15.0933V15.0616C26.2113 15.0616 26.2113 15.03 26.2113 15.0102C26.2056 14.9524 26.2056 14.8941 26.2113 14.8362C26.0304 12.6847 25.3113 10.6143 24.121 8.81791C23.7878 9.05874 23.4855 9.34033 23.2213 9.65621C22.7753 10.2057 22.4643 10.8532 22.3136 11.5463C22.8648 12.6811 23.193 13.9123 23.2802 15.1723C23.2802 15.1961 23.2802 15.2198 23.2802 15.2435C23.2971 15.8522 23.247 16.4609 23.1309 17.0585C22.7733 18.9051 21.8068 20.7597 20.2587 22.5667C18.502 24.5267 16.4364 26.1819 14.1449 27.466C12.1939 28.5999 10.1386 29.5415 8.00758 30.2775V30.2775Z" fill="#FDF6E4"/>
<path d="M27.5041 16.0304C27.217 16.0809 26.9218 16.0148 26.6831 15.8465C26.4444 15.6782 26.2818 15.4215 26.231 15.1327V15.0932C26.2249 15.0208 26.2249 14.9481 26.231 14.8757C26.2312 14.5983 26.3348 14.3311 26.5214 14.1269C26.7079 13.9227 26.9639 13.7965 27.2385 13.7731C27.5132 13.7497 27.7865 13.831 28.0045 14.0007C28.2225 14.1705 28.3692 14.4164 28.4156 14.6899C28.4178 14.7149 28.4178 14.74 28.4156 14.765C28.4156 14.765 28.4156 14.8006 28.4156 14.8125C28.4477 15.0943 28.371 15.3779 28.2014 15.6045C28.0317 15.8311 27.7821 15.9836 27.5041 16.0304V16.0304Z" fill="#FDF6E4"/>
<path d="M24.9737 33.6821C24.6861 33.7345 24.3896 33.6698 24.1494 33.5022C23.9092 33.3347 23.7449 33.0779 23.6928 32.7884C23.6407 32.499 23.705 32.2006 23.8715 31.9588C24.0381 31.7171 24.2932 31.5518 24.5808 31.4994C24.723 31.4734 24.8688 31.4759 25.01 31.5066C25.1512 31.5374 25.285 31.5958 25.4038 31.6786C25.5226 31.7614 25.6239 31.867 25.7022 31.9892C25.7804 32.1114 25.834 32.248 25.8598 32.391C25.8856 32.5341 25.8831 32.6809 25.8525 32.823C25.822 32.9651 25.7639 33.0997 25.6816 33.2193C25.5993 33.3388 25.4945 33.4408 25.373 33.5196C25.2516 33.5983 25.1159 33.6522 24.9737 33.6781V33.6821Z" fill="#FDF6E4"/>
<path d="M24.9737 33.682H24.8912C21.2797 34.2217 17.5992 34.0633 14.0467 33.2154C13.8236 33.1498 13.6248 33.0194 13.4752 32.8404C13.3255 32.6614 13.2318 32.442 13.2058 32.2095C13.1798 31.9771 13.2226 31.7422 13.3288 31.5342C13.4351 31.3262 13.6001 31.1544 13.8031 31.0406C16.0408 29.9154 18.1346 28.5212 20.0387 26.8886C20.238 26.7169 20.4913 26.6216 20.7538 26.6197C21.2921 26.6197 21.8382 26.6197 22.3844 26.5565C23.2655 26.489 24.1379 26.3354 24.9894 26.0978C25.512 25.9515 26.0346 25.7814 26.5414 25.5995C26.7944 25.5018 27.0743 25.5018 27.3273 25.5995C29.721 26.502 32.2167 27.1024 34.7573 27.3869C34.9794 27.4136 35.1882 27.5079 35.3558 27.6571C35.5233 27.8064 35.6416 28.0035 35.695 28.2221C35.7484 28.4408 35.7342 28.6707 35.6544 28.881C35.5746 29.0914 35.433 29.2723 35.2484 29.3995C32.1744 31.4673 28.7322 32.9174 25.1112 33.6701L24.9737 33.682ZM17.3393 31.5744C19.7348 31.8753 22.1594 31.854 24.5493 31.5111L24.6751 31.4874C27.0241 30.9942 29.2969 30.187 31.4332 29.0872C29.8927 28.7706 28.3772 28.3411 26.899 27.802C26.4628 27.9484 26.0188 28.0867 25.5748 28.1975C24.586 28.4739 23.5727 28.6527 22.5494 28.7313C22.0897 28.7669 21.626 28.7866 21.1663 28.7985C19.9622 29.8197 18.6828 30.7477 17.3393 31.5744V31.5744Z" fill="#FDF6E4"/>
</g>
<defs>
<clipPath id="clip0_107_7">
<rect width="258" height="40.4556" fill="white"/>
</clipPath>
</defs>
</svg>
